<?xml version="1.0" encoding="iso-8859-1"?>
<!-- Uploaded to: SVG Repo, www.svgrepo.com, Generator: SVG Repo Mixer Tools -->
<!DOCTYPE svg PUBLIC "-//W3C//DTD SVG 1.1//EN" "http://www.w3.org/Graphics/SVG/1.1/DTD/svg11.dtd">
<svg fill="#000000" version="1.1" id="Capa_1" xmlns="http://www.w3.org/2000/svg" xmlns:xlink="http://www.w3.org/1999/xlink" 
	 width="800px" height="800px" viewBox="0 0 121.703 121.703"
	 xml:space="preserve">
<g>
	<g>
		<circle cx="72.219" cy="40.33" r="12.079"/>
		<rect x="43.124" y="88.15" width="52.392" height="33.553"/>
		<path d="M95.18,81.991c2.498-15.925-10.328-23.81-15.152-26.768c-0.154-0.094-0.321-0.16-0.483-0.234
			c-1.323-0.87-2.805-1.508-4.313-1.88l-3.008,3.032l-2.918-3.062c-0.012,0-0.021,0-0.031,0.004
			c-1.445,0.344-2.867,0.945-4.151,1.754c-0.317,0.096-0.638,0.222-0.94,0.394c-1.869,1.052-3.648,1.256-5.597,0.65
			c-2.517-0.784-4.963-2.77-7.12-5.104l-3.929-5c-1.454-2.142-2.569-4.121-3.176-5.363c-1.131-2.33-3.938-3.3-6.268-2.17
			c-2.329,1.13-3.302,3.938-2.17,6.268c0.607,1.25,4.864,9.688,11.613,15.504v0.002c0.336-0.442,0.764-0.814,1.276-1.056
			l3.376-1.586c0.466-0.217,0.964-0.328,1.476-0.328c1.346,0,2.579,0.784,3.148,2.002c0.394,0.836,0.435,1.779,0.12,2.653
			c-0.316,0.872-0.951,1.57-1.79,1.963l-1.097,0.516c0.565,0.242,1.139,0.465,1.728,0.647c1.357,0.425,2.722,0.662,4.084,0.731
			v16.431H43.899c0.082-3.688,0.798-13.464,5.99-18.21c0.39,0.107,0.819,0.088,1.216-0.098l3.378-1.586
			c0.884-0.412,1.265-1.469,0.85-2.354c-0.413-0.884-1.469-1.264-2.353-0.848l-3.378,1.586c-0.535,0.25-0.882,0.735-0.983,1.274
			c-6.238,5.342-7.016,16.197-7.082,20.233H37.16v3.634h66.383v-3.632H95.18z M72.247,80.046h-0.056l-2.911-3.987l2.911-19.472
			h0.056l2.914,19.472L72.247,80.046z M85.611,81.991h-1.028V71.955C86.001,74.641,86.539,77.9,85.611,81.991z"/>
		<path d="M44.411,28.251c1.017,0,2.878-0.096,4.208-0.308l12.002,3.686l-2.373-10.063c0.806-1.24,2.257-3.891,2.257-6.889
			c0-7.485-7.22-13.573-16.094-13.573c-1.083,0-2.14,0.092-3.166,0.264C39.129,0.498,36.762,0,34.255,0
			C25.38,0,18.16,6.088,18.16,13.574c0,7.484,7.22,13.576,16.095,13.576c0.808,0,2.152-0.063,3.339-0.192
			C39.665,27.778,41.971,28.251,44.411,28.251z M21.72,13.574c0-5.52,5.622-10.014,12.534-10.014c0.298,0,0.593,0.021,0.889,0.04
			c-4.12,2.46-6.823,6.504-6.823,11.077c0,3.334,1.439,6.391,3.814,8.758C26.231,22.625,21.72,18.52,21.72,13.574z M31.878,14.677
			c0-5.521,5.623-10.016,12.532-10.016c6.91,0,12.533,4.494,12.533,10.016c0,2.792-1.991,5.398-2.009,5.422l-0.533,0.675
			l1.329,5.632l-6.912-2.124l-0.441,0.092c-0.927,0.188-2.834,0.318-3.967,0.318C37.501,24.692,31.878,20.2,31.878,14.677z"/>
	</g>
</g>
</svg>