<?xml version="1.0" encoding="UTF-8" standalone="no"?>
<!-- Created with Inkscape (http://www.inkscape.org/) -->

<svg
   xmlns:dc="http://purl.org/dc/elements/1.1/"
   xmlns:cc="http://creativecommons.org/ns#"
   xmlns:rdf="http://www.w3.org/1999/02/22-rdf-syntax-ns#"
   xmlns:svg="http://www.w3.org/2000/svg"
   xmlns="http://www.w3.org/2000/svg"
   xmlns:sodipodi="http://sodipodi.sourceforge.net/DTD/sodipodi-0.dtd"
   xmlns:inkscape="http://www.inkscape.org/namespaces/inkscape"
   width="210mm"
   height="297mm"
   viewBox="0 0 744.09448 1052.3622"
   id="svg2"
   version="1.1"
   inkscape:version="0.91 r13725"
   sodipodi:docname="torre-pisa.svg">
  <defs
     id="defs4" />
  <sodipodi:namedview
     id="base"
     pagecolor="#ffffff"
     bordercolor="#666666"
     borderopacity="1.0"
     inkscape:pageopacity="0.0"
     inkscape:pageshadow="2"
     inkscape:zoom="0.67372241"
     inkscape:cx="372.04724"
     inkscape:cy="526.1811"
     inkscape:document-units="px"
     inkscape:current-layer="layer1"
     showgrid="false"
     inkscape:window-width="1440"
     inkscape:window-height="851"
     inkscape:window-x="0"
     inkscape:window-y="1"
     inkscape:window-maximized="1" />
  <metadata
     id="metadata7">
    <rdf:RDF>
      <cc:Work
         rdf:about="">
        <dc:format>image/svg+xml</dc:format>
        <dc:type
           rdf:resource="http://purl.org/dc/dcmitype/StillImage" />
        <dc:title></dc:title>
      </cc:Work>
    </rdf:RDF>
  </metadata>
  <g
     inkscape:label="Livello 1"
     inkscape:groupmode="layer"
     id="layer1"
     transform="translate(0,-3.464567e-6)">
    <g
       id="g5126"
       transform="matrix(1.6690916,0,0,1.6690916,-170.58833,-576.04292)">
      <g
         transform="matrix(0.98824975,0.15284771,-0.15284771,0.98824975,211.47252,54.560279)"
         id="g4622">
        <g
           id="g4360"
           transform="matrix(1.0865714,0,0,1.3027047,-18.78515,-238.16286)">
          <rect
             y="791.78455"
             x="163.26784"
             height="93.246086"
             width="143.2599"
             id="rect4153"
             style="fill:#000000;stroke-width:3;stroke-miterlimit:4;stroke-dasharray:none" />
          <g
             transform="matrix(0.40379098,0,0,0.43899475,118.35862,527.23024)"
             style="fill:#ffffff;stroke-width:2.87765908;stroke-miterlimit:4;stroke-dasharray:none"
             id="g3347">
            <path
               style="fill:#ffffff;fill-rule:evenodd;stroke:#000000;stroke-width:2.87765908;stroke-linecap:butt;stroke-linejoin:miter;stroke-miterlimit:4;stroke-dasharray:none;stroke-opacity:1"
               d="m 166.3457,617.41727 c -18.27487,0 -32.98652,19.34282 -32.98652,43.37052 l 0,134.9339 c 0,0.69323 0.0147,1.38017 0.039,2.06526 l 65.89508,0 c 0.0242,-0.68509 0.039,-1.37203 0.039,-2.06526 l 0,-134.9339 c 0,-24.0277 -14.71166,-43.37052 -32.98653,-43.37052 z"
               id="rect3336"
               inkscape:connector-curvature="0" />
            <path
               inkscape:connector-curvature="0"
               id="path3341"
               d="m 245.75775,617.41727 c -18.27487,0 -32.98652,19.34282 -32.98652,43.37052 l 0,134.9339 c 0,0.69323 0.0147,1.38017 0.039,2.06526 l 65.89508,0 c 0.0242,-0.68509 0.039,-1.37203 0.039,-2.06526 l 0,-134.9339 c 0,-24.0277 -14.71166,-43.37052 -32.98653,-43.37052 z"
               style="fill:#ffffff;fill-rule:evenodd;stroke:#000000;stroke-width:2.87765908;stroke-linecap:butt;stroke-linejoin:miter;stroke-miterlimit:4;stroke-dasharray:none;stroke-opacity:1" />
            <path
               style="fill:#ffffff;fill-rule:evenodd;stroke:#000000;stroke-width:2.87765908;stroke-linecap:butt;stroke-linejoin:miter;stroke-miterlimit:4;stroke-dasharray:none;stroke-opacity:1"
               d="m 325.1698,617.41727 c -18.27487,0 -32.98652,19.34282 -32.98652,43.37052 l 0,134.9339 c 0,0.69323 0.0147,1.38017 0.039,2.06526 l 65.89508,0 c 0.0242,-0.68509 0.039,-1.37203 0.039,-2.06526 l 0,-134.9339 c 0,-24.0277 -14.71166,-43.37052 -32.98653,-43.37052 z"
               id="path3343"
               inkscape:connector-curvature="0" />
            <path
               inkscape:connector-curvature="0"
               id="path3345"
               d="m 404.58185,617.41727 c -18.27487,0 -32.98652,19.34282 -32.98652,43.37052 l 0,134.9339 c 0,0.69323 0.0147,1.38017 0.039,2.06526 l 65.89508,0 c 0.0242,-0.68509 0.039,-1.37203 0.039,-2.06526 l 0,-134.9339 c 0,-24.0277 -14.71166,-43.37052 -32.98653,-43.37052 z"
               style="fill:#ffffff;fill-rule:evenodd;stroke:#000000;stroke-width:2.87765908;stroke-linecap:butt;stroke-linejoin:miter;stroke-miterlimit:4;stroke-dasharray:none;stroke-opacity:1" />
          </g>
        </g>
        <g
           id="g4498"
           transform="translate(1.5502783,0)">
          <g
             transform="matrix(0.40385556,0,0,0.32999763,140.03301,534.8583)"
             id="g4216">
            <rect
               y="560.11548"
               x="66.302216"
               height="230.88969"
               width="337.19116"
               id="rect4214"
               style="fill:#000000;stroke-width:3;stroke-miterlimit:4;stroke-dasharray:none" />
            <g
               id="g4202"
               transform="translate(-0.32127837,0.64706946)">
              <g
                 transform="translate(-22,0)"
                 id="g4186">
                <path
                   style="fill:#ffffff;fill-rule:evenodd;stroke:#000000;stroke-width:2.26865911;stroke-linecap:butt;stroke-linejoin:miter;stroke-miterlimit:4;stroke-dasharray:none;stroke-opacity:1"
                   d="m 283.57283,576.51636 c -10.41034,0 -18.79088,21.1042 -18.79088,47.3199 l 0,147.22115 c 0,0.75636 0.008,1.50585 0.0222,2.25333 l 37.53736,0 c 0.0138,-0.74748 0.0222,-1.49697 0.0222,-2.25333 l 0,-147.22115 c 0,-26.2157 -8.38055,-47.3199 -18.79089,-47.3199 z"
                   id="path4169"
                   inkscape:connector-curvature="0" />
                <path
                   inkscape:connector-curvature="0"
                   id="path4171"
                   d="m 330.81017,576.51636 c -10.41034,0 -18.79088,21.1042 -18.79088,47.3199 l 0,147.22115 c 0,0.75636 0.008,1.50585 0.0222,2.25333 l 37.53735,0 c 0.0138,-0.74748 0.0222,-1.49697 0.0222,-2.25333 l 0,-147.22115 c 0,-26.2157 -8.38055,-47.3199 -18.79089,-47.3199 z"
                   style="fill:#ffffff;fill-rule:evenodd;stroke:#000000;stroke-width:2.26865911;stroke-linecap:butt;stroke-linejoin:miter;stroke-miterlimit:4;stroke-dasharray:none;stroke-opacity:1" />
                <path
                   style="fill:#ffffff;fill-rule:evenodd;stroke:#000000;stroke-width:1.88542378;stroke-linecap:butt;stroke-linejoin:miter;stroke-miterlimit:4;stroke-dasharray:none;stroke-opacity:1"
                   d="m 370.01836,576.32474 c -7.17629,0 -12.95335,21.1453 -12.95335,47.41205 l 0,147.50785 c 0,0.75783 0.006,1.50878 0.0153,2.25772 l 25.87606,0 c 0.01,-0.74894 0.0153,-1.49989 0.0153,-2.25772 l 0,-147.50785 c 0,-26.26675 -5.77706,-47.41205 -12.95334,-47.41205 z"
                   id="path4173"
                   inkscape:connector-curvature="0" />
                <path
                   style="fill:#ffffff;fill-rule:evenodd;stroke:#000000;stroke-width:2.26865911;stroke-linecap:butt;stroke-linejoin:miter;stroke-miterlimit:4;stroke-dasharray:none;stroke-opacity:1"
                   d="m 416.90032,576.51577 c -10.41034,0 -18.79102,21.10461 -18.79102,47.32031 l 0,147.2207 c 0,0.75636 0.007,1.50643 0.0215,2.25391 l 19.5254,0 0,-196.74609 c -0.25133,-0.0249 -0.50203,-0.0488 -0.75586,-0.0488 z"
                   id="path4175"
                   inkscape:connector-curvature="0" />
              </g>
              <g
                 transform="matrix(-1,0,0,1,492.43815,0)"
                 id="g4192">
                <path
                   inkscape:connector-curvature="0"
                   id="path4194"
                   d="m 283.57283,576.51636 c -10.41034,0 -18.79088,21.1042 -18.79088,47.3199 l 0,147.22115 c 0,0.75636 0.008,1.50585 0.0222,2.25333 l 37.53736,0 c 0.0138,-0.74748 0.0222,-1.49697 0.0222,-2.25333 l 0,-147.22115 c 0,-26.2157 -8.38055,-47.3199 -18.79089,-47.3199 z"
                   style="fill:#ffffff;fill-rule:evenodd;stroke:#000000;stroke-width:2.26865911;stroke-linecap:butt;stroke-linejoin:miter;stroke-miterlimit:4;stroke-dasharray:none;stroke-opacity:1" />
                <path
                   style="fill:#ffffff;fill-rule:evenodd;stroke:#000000;stroke-width:2.26865911;stroke-linecap:butt;stroke-linejoin:miter;stroke-miterlimit:4;stroke-dasharray:none;stroke-opacity:1"
                   d="m 330.81017,576.51636 c -10.41034,0 -18.79088,21.1042 -18.79088,47.3199 l 0,147.22115 c 0,0.75636 0.008,1.50585 0.0222,2.25333 l 37.53735,0 c 0.0138,-0.74748 0.0222,-1.49697 0.0222,-2.25333 l 0,-147.22115 c 0,-26.2157 -8.38055,-47.3199 -18.79089,-47.3199 z"
                   id="path4196"
                   inkscape:connector-curvature="0" />
                <path
                   inkscape:connector-curvature="0"
                   id="path4198"
                   d="m 370.01836,576.32474 c -7.17629,0 -12.95335,21.1453 -12.95335,47.41205 l 0,147.50785 c 0,0.75783 0.006,1.50878 0.0153,2.25772 l 25.87606,0 c 0.01,-0.74894 0.0153,-1.49989 0.0153,-2.25772 l 0,-147.50785 c 0,-26.26675 -5.77706,-47.41205 -12.95334,-47.41205 z"
                   style="fill:#ffffff;fill-rule:evenodd;stroke:#000000;stroke-width:1.88542378;stroke-linecap:butt;stroke-linejoin:miter;stroke-miterlimit:4;stroke-dasharray:none;stroke-opacity:1" />
                <path
                   inkscape:connector-curvature="0"
                   id="path4200"
                   d="m 416.90032,576.51577 c -10.41034,0 -18.79102,21.10461 -18.79102,47.32031 l 0,147.2207 c 0,0.75636 0.007,1.50643 0.0215,2.25391 l 19.5254,0 0,-196.74609 c -0.25133,-0.0249 -0.50203,-0.0488 -0.75586,-0.0488 z"
                   style="fill:#ffffff;fill-rule:evenodd;stroke:#000000;stroke-width:2.26865911;stroke-linecap:butt;stroke-linejoin:miter;stroke-miterlimit:4;stroke-dasharray:none;stroke-opacity:1" />
              </g>
            </g>
          </g>
          <g
             id="g4368"
             transform="matrix(0.40385556,0,0,0.32999763,140.03301,458.66525)">
            <rect
               style="fill:#000000;stroke-width:3;stroke-miterlimit:4;stroke-dasharray:none"
               id="rect4370"
               width="337.19116"
               height="230.88969"
               x="66.302216"
               y="560.11548" />
            <g
               transform="translate(-0.32127837,0.64706946)"
               id="g4372">
              <g
                 id="g4374"
                 transform="translate(-22,0)">
                <path
                   inkscape:connector-curvature="0"
                   id="path4376"
                   d="m 283.57283,576.51636 c -10.41034,0 -18.79088,21.1042 -18.79088,47.3199 l 0,147.22115 c 0,0.75636 0.008,1.50585 0.0222,2.25333 l 37.53736,0 c 0.0138,-0.74748 0.0222,-1.49697 0.0222,-2.25333 l 0,-147.22115 c 0,-26.2157 -8.38055,-47.3199 -18.79089,-47.3199 z"
                   style="fill:#ffffff;fill-rule:evenodd;stroke:#000000;stroke-width:2.26865911;stroke-linecap:butt;stroke-linejoin:miter;stroke-miterlimit:4;stroke-dasharray:none;stroke-opacity:1" />
                <path
                   style="fill:#ffffff;fill-rule:evenodd;stroke:#000000;stroke-width:2.26865911;stroke-linecap:butt;stroke-linejoin:miter;stroke-miterlimit:4;stroke-dasharray:none;stroke-opacity:1"
                   d="m 330.81017,576.51636 c -10.41034,0 -18.79088,21.1042 -18.79088,47.3199 l 0,147.22115 c 0,0.75636 0.008,1.50585 0.0222,2.25333 l 37.53735,0 c 0.0138,-0.74748 0.0222,-1.49697 0.0222,-2.25333 l 0,-147.22115 c 0,-26.2157 -8.38055,-47.3199 -18.79089,-47.3199 z"
                   id="path4378"
                   inkscape:connector-curvature="0" />
                <path
                   inkscape:connector-curvature="0"
                   id="path4380"
                   d="m 370.01836,576.32474 c -7.17629,0 -12.95335,21.1453 -12.95335,47.41205 l 0,147.50785 c 0,0.75783 0.006,1.50878 0.0153,2.25772 l 25.87606,0 c 0.01,-0.74894 0.0153,-1.49989 0.0153,-2.25772 l 0,-147.50785 c 0,-26.26675 -5.77706,-47.41205 -12.95334,-47.41205 z"
                   style="fill:#ffffff;fill-rule:evenodd;stroke:#000000;stroke-width:1.88542378;stroke-linecap:butt;stroke-linejoin:miter;stroke-miterlimit:4;stroke-dasharray:none;stroke-opacity:1" />
                <path
                   inkscape:connector-curvature="0"
                   id="path4382"
                   d="m 416.90032,576.51577 c -10.41034,0 -18.79102,21.10461 -18.79102,47.32031 l 0,147.2207 c 0,0.75636 0.007,1.50643 0.0215,2.25391 l 19.5254,0 0,-196.74609 c -0.25133,-0.0249 -0.50203,-0.0488 -0.75586,-0.0488 z"
                   style="fill:#ffffff;fill-rule:evenodd;stroke:#000000;stroke-width:2.26865911;stroke-linecap:butt;stroke-linejoin:miter;stroke-miterlimit:4;stroke-dasharray:none;stroke-opacity:1" />
              </g>
              <g
                 id="g4384"
                 transform="matrix(-1,0,0,1,492.43815,0)">
                <path
                   style="fill:#ffffff;fill-rule:evenodd;stroke:#000000;stroke-width:2.26865911;stroke-linecap:butt;stroke-linejoin:miter;stroke-miterlimit:4;stroke-dasharray:none;stroke-opacity:1"
                   d="m 283.57283,576.51636 c -10.41034,0 -18.79088,21.1042 -18.79088,47.3199 l 0,147.22115 c 0,0.75636 0.008,1.50585 0.0222,2.25333 l 37.53736,0 c 0.0138,-0.74748 0.0222,-1.49697 0.0222,-2.25333 l 0,-147.22115 c 0,-26.2157 -8.38055,-47.3199 -18.79089,-47.3199 z"
                   id="path4386"
                   inkscape:connector-curvature="0" />
                <path
                   inkscape:connector-curvature="0"
                   id="path4388"
                   d="m 330.81017,576.51636 c -10.41034,0 -18.79088,21.1042 -18.79088,47.3199 l 0,147.22115 c 0,0.75636 0.008,1.50585 0.0222,2.25333 l 37.53735,0 c 0.0138,-0.74748 0.0222,-1.49697 0.0222,-2.25333 l 0,-147.22115 c 0,-26.2157 -8.38055,-47.3199 -18.79089,-47.3199 z"
                   style="fill:#ffffff;fill-rule:evenodd;stroke:#000000;stroke-width:2.26865911;stroke-linecap:butt;stroke-linejoin:miter;stroke-miterlimit:4;stroke-dasharray:none;stroke-opacity:1" />
                <path
                   style="fill:#ffffff;fill-rule:evenodd;stroke:#000000;stroke-width:1.88542378;stroke-linecap:butt;stroke-linejoin:miter;stroke-miterlimit:4;stroke-dasharray:none;stroke-opacity:1"
                   d="m 370.01836,576.32474 c -7.17629,0 -12.95335,21.1453 -12.95335,47.41205 l 0,147.50785 c 0,0.75783 0.006,1.50878 0.0153,2.25772 l 25.87606,0 c 0.01,-0.74894 0.0153,-1.49989 0.0153,-2.25772 l 0,-147.50785 c 0,-26.26675 -5.77706,-47.41205 -12.95334,-47.41205 z"
                   id="path4390"
                   inkscape:connector-curvature="0" />
                <path
                   style="fill:#ffffff;fill-rule:evenodd;stroke:#000000;stroke-width:2.26865911;stroke-linecap:butt;stroke-linejoin:miter;stroke-miterlimit:4;stroke-dasharray:none;stroke-opacity:1"
                   d="m 416.90032,576.51577 c -10.41034,0 -18.79102,21.10461 -18.79102,47.32031 l 0,147.2207 c 0,0.75636 0.007,1.50643 0.0215,2.25391 l 19.5254,0 0,-196.74609 c -0.25133,-0.0249 -0.50203,-0.0488 -0.75586,-0.0488 z"
                   id="path4392"
                   inkscape:connector-curvature="0" />
              </g>
            </g>
          </g>
          <g
             transform="matrix(0.40385556,0,0,0.32999763,140.03301,382.4722)"
             id="g4394">
            <rect
               y="560.11548"
               x="66.302216"
               height="230.88969"
               width="337.19116"
               id="rect4396"
               style="fill:#000000;stroke-width:3;stroke-miterlimit:4;stroke-dasharray:none" />
            <g
               id="g4398"
               transform="translate(-0.32127837,0.64706946)">
              <g
                 transform="translate(-22,0)"
                 id="g4400">
                <path
                   style="fill:#ffffff;fill-rule:evenodd;stroke:#000000;stroke-width:2.26865911;stroke-linecap:butt;stroke-linejoin:miter;stroke-miterlimit:4;stroke-dasharray:none;stroke-opacity:1"
                   d="m 283.57283,576.51636 c -10.41034,0 -18.79088,21.1042 -18.79088,47.3199 l 0,147.22115 c 0,0.75636 0.008,1.50585 0.0222,2.25333 l 37.53736,0 c 0.0138,-0.74748 0.0222,-1.49697 0.0222,-2.25333 l 0,-147.22115 c 0,-26.2157 -8.38055,-47.3199 -18.79089,-47.3199 z"
                   id="path4402"
                   inkscape:connector-curvature="0" />
                <path
                   inkscape:connector-curvature="0"
                   id="path4404"
                   d="m 330.81017,576.51636 c -10.41034,0 -18.79088,21.1042 -18.79088,47.3199 l 0,147.22115 c 0,0.75636 0.008,1.50585 0.0222,2.25333 l 37.53735,0 c 0.0138,-0.74748 0.0222,-1.49697 0.0222,-2.25333 l 0,-147.22115 c 0,-26.2157 -8.38055,-47.3199 -18.79089,-47.3199 z"
                   style="fill:#ffffff;fill-rule:evenodd;stroke:#000000;stroke-width:2.26865911;stroke-linecap:butt;stroke-linejoin:miter;stroke-miterlimit:4;stroke-dasharray:none;stroke-opacity:1" />
                <path
                   style="fill:#ffffff;fill-rule:evenodd;stroke:#000000;stroke-width:1.88542378;stroke-linecap:butt;stroke-linejoin:miter;stroke-miterlimit:4;stroke-dasharray:none;stroke-opacity:1"
                   d="m 370.01836,576.32474 c -7.17629,0 -12.95335,21.1453 -12.95335,47.41205 l 0,147.50785 c 0,0.75783 0.006,1.50878 0.0153,2.25772 l 25.87606,0 c 0.01,-0.74894 0.0153,-1.49989 0.0153,-2.25772 l 0,-147.50785 c 0,-26.26675 -5.77706,-47.41205 -12.95334,-47.41205 z"
                   id="path4406"
                   inkscape:connector-curvature="0" />
                <path
                   style="fill:#ffffff;fill-rule:evenodd;stroke:#000000;stroke-width:2.26865911;stroke-linecap:butt;stroke-linejoin:miter;stroke-miterlimit:4;stroke-dasharray:none;stroke-opacity:1"
                   d="m 416.90032,576.51577 c -10.41034,0 -18.79102,21.10461 -18.79102,47.32031 l 0,147.2207 c 0,0.75636 0.007,1.50643 0.0215,2.25391 l 19.5254,0 0,-196.74609 c -0.25133,-0.0249 -0.50203,-0.0488 -0.75586,-0.0488 z"
                   id="path4408"
                   inkscape:connector-curvature="0" />
              </g>
              <g
                 transform="matrix(-1,0,0,1,492.43815,0)"
                 id="g4410">
                <path
                   inkscape:connector-curvature="0"
                   id="path4412"
                   d="m 283.57283,576.51636 c -10.41034,0 -18.79088,21.1042 -18.79088,47.3199 l 0,147.22115 c 0,0.75636 0.008,1.50585 0.0222,2.25333 l 37.53736,0 c 0.0138,-0.74748 0.0222,-1.49697 0.0222,-2.25333 l 0,-147.22115 c 0,-26.2157 -8.38055,-47.3199 -18.79089,-47.3199 z"
                   style="fill:#ffffff;fill-rule:evenodd;stroke:#000000;stroke-width:2.26865911;stroke-linecap:butt;stroke-linejoin:miter;stroke-miterlimit:4;stroke-dasharray:none;stroke-opacity:1" />
                <path
                   style="fill:#ffffff;fill-rule:evenodd;stroke:#000000;stroke-width:2.26865911;stroke-linecap:butt;stroke-linejoin:miter;stroke-miterlimit:4;stroke-dasharray:none;stroke-opacity:1"
                   d="m 330.81017,576.51636 c -10.41034,0 -18.79088,21.1042 -18.79088,47.3199 l 0,147.22115 c 0,0.75636 0.008,1.50585 0.0222,2.25333 l 37.53735,0 c 0.0138,-0.74748 0.0222,-1.49697 0.0222,-2.25333 l 0,-147.22115 c 0,-26.2157 -8.38055,-47.3199 -18.79089,-47.3199 z"
                   id="path4414"
                   inkscape:connector-curvature="0" />
                <path
                   inkscape:connector-curvature="0"
                   id="path4416"
                   d="m 370.01836,576.32474 c -7.17629,0 -12.95335,21.1453 -12.95335,47.41205 l 0,147.50785 c 0,0.75783 0.006,1.50878 0.0153,2.25772 l 25.87606,0 c 0.01,-0.74894 0.0153,-1.49989 0.0153,-2.25772 l 0,-147.50785 c 0,-26.26675 -5.77706,-47.41205 -12.95334,-47.41205 z"
                   style="fill:#ffffff;fill-rule:evenodd;stroke:#000000;stroke-width:1.88542378;stroke-linecap:butt;stroke-linejoin:miter;stroke-miterlimit:4;stroke-dasharray:none;stroke-opacity:1" />
                <path
                   inkscape:connector-curvature="0"
                   id="path4418"
                   d="m 416.90032,576.51577 c -10.41034,0 -18.79102,21.10461 -18.79102,47.32031 l 0,147.2207 c 0,0.75636 0.007,1.50643 0.0215,2.25391 l 19.5254,0 0,-196.74609 c -0.25133,-0.0249 -0.50203,-0.0488 -0.75586,-0.0488 z"
                   style="fill:#ffffff;fill-rule:evenodd;stroke:#000000;stroke-width:2.26865911;stroke-linecap:butt;stroke-linejoin:miter;stroke-miterlimit:4;stroke-dasharray:none;stroke-opacity:1" />
              </g>
            </g>
          </g>
          <g
             id="g4420"
             transform="matrix(0.40385556,0,0,0.32999763,140.03301,306.27914)">
            <rect
               style="fill:#000000;stroke-width:3;stroke-miterlimit:4;stroke-dasharray:none"
               id="rect4422"
               width="337.19116"
               height="230.88969"
               x="66.302216"
               y="560.11548" />
            <g
               transform="translate(-0.32127837,0.64706946)"
               id="g4424">
              <g
                 id="g4426"
                 transform="translate(-22,0)">
                <path
                   inkscape:connector-curvature="0"
                   id="path4428"
                   d="m 283.57283,576.51636 c -10.41034,0 -18.79088,21.1042 -18.79088,47.3199 l 0,147.22115 c 0,0.75636 0.008,1.50585 0.0222,2.25333 l 37.53736,0 c 0.0138,-0.74748 0.0222,-1.49697 0.0222,-2.25333 l 0,-147.22115 c 0,-26.2157 -8.38055,-47.3199 -18.79089,-47.3199 z"
                   style="fill:#ffffff;fill-rule:evenodd;stroke:#000000;stroke-width:2.26865911;stroke-linecap:butt;stroke-linejoin:miter;stroke-miterlimit:4;stroke-dasharray:none;stroke-opacity:1" />
                <path
                   style="fill:#ffffff;fill-rule:evenodd;stroke:#000000;stroke-width:2.26865911;stroke-linecap:butt;stroke-linejoin:miter;stroke-miterlimit:4;stroke-dasharray:none;stroke-opacity:1"
                   d="m 330.81017,576.51636 c -10.41034,0 -18.79088,21.1042 -18.79088,47.3199 l 0,147.22115 c 0,0.75636 0.008,1.50585 0.0222,2.25333 l 37.53735,0 c 0.0138,-0.74748 0.0222,-1.49697 0.0222,-2.25333 l 0,-147.22115 c 0,-26.2157 -8.38055,-47.3199 -18.79089,-47.3199 z"
                   id="path4430"
                   inkscape:connector-curvature="0" />
                <path
                   inkscape:connector-curvature="0"
                   id="path4432"
                   d="m 370.01836,576.32474 c -7.17629,0 -12.95335,21.1453 -12.95335,47.41205 l 0,147.50785 c 0,0.75783 0.006,1.50878 0.0153,2.25772 l 25.87606,0 c 0.01,-0.74894 0.0153,-1.49989 0.0153,-2.25772 l 0,-147.50785 c 0,-26.26675 -5.77706,-47.41205 -12.95334,-47.41205 z"
                   style="fill:#ffffff;fill-rule:evenodd;stroke:#000000;stroke-width:1.88542378;stroke-linecap:butt;stroke-linejoin:miter;stroke-miterlimit:4;stroke-dasharray:none;stroke-opacity:1" />
                <path
                   inkscape:connector-curvature="0"
                   id="path4434"
                   d="m 416.90032,576.51577 c -10.41034,0 -18.79102,21.10461 -18.79102,47.32031 l 0,147.2207 c 0,0.75636 0.007,1.50643 0.0215,2.25391 l 19.5254,0 0,-196.74609 c -0.25133,-0.0249 -0.50203,-0.0488 -0.75586,-0.0488 z"
                   style="fill:#ffffff;fill-rule:evenodd;stroke:#000000;stroke-width:2.26865911;stroke-linecap:butt;stroke-linejoin:miter;stroke-miterlimit:4;stroke-dasharray:none;stroke-opacity:1" />
              </g>
              <g
                 id="g4436"
                 transform="matrix(-1,0,0,1,492.43815,0)">
                <path
                   style="fill:#ffffff;fill-rule:evenodd;stroke:#000000;stroke-width:2.26865911;stroke-linecap:butt;stroke-linejoin:miter;stroke-miterlimit:4;stroke-dasharray:none;stroke-opacity:1"
                   d="m 283.57283,576.51636 c -10.41034,0 -18.79088,21.1042 -18.79088,47.3199 l 0,147.22115 c 0,0.75636 0.008,1.50585 0.0222,2.25333 l 37.53736,0 c 0.0138,-0.74748 0.0222,-1.49697 0.0222,-2.25333 l 0,-147.22115 c 0,-26.2157 -8.38055,-47.3199 -18.79089,-47.3199 z"
                   id="path4438"
                   inkscape:connector-curvature="0" />
                <path
                   inkscape:connector-curvature="0"
                   id="path4440"
                   d="m 330.81017,576.51636 c -10.41034,0 -18.79088,21.1042 -18.79088,47.3199 l 0,147.22115 c 0,0.75636 0.008,1.50585 0.0222,2.25333 l 37.53735,0 c 0.0138,-0.74748 0.0222,-1.49697 0.0222,-2.25333 l 0,-147.22115 c 0,-26.2157 -8.38055,-47.3199 -18.79089,-47.3199 z"
                   style="fill:#ffffff;fill-rule:evenodd;stroke:#000000;stroke-width:2.26865911;stroke-linecap:butt;stroke-linejoin:miter;stroke-miterlimit:4;stroke-dasharray:none;stroke-opacity:1" />
                <path
                   style="fill:#ffffff;fill-rule:evenodd;stroke:#000000;stroke-width:1.88542378;stroke-linecap:butt;stroke-linejoin:miter;stroke-miterlimit:4;stroke-dasharray:none;stroke-opacity:1"
                   d="m 370.01836,576.32474 c -7.17629,0 -12.95335,21.1453 -12.95335,47.41205 l 0,147.50785 c 0,0.75783 0.006,1.50878 0.0153,2.25772 l 25.87606,0 c 0.01,-0.74894 0.0153,-1.49989 0.0153,-2.25772 l 0,-147.50785 c 0,-26.26675 -5.77706,-47.41205 -12.95334,-47.41205 z"
                   id="path4442"
                   inkscape:connector-curvature="0" />
                <path
                   style="fill:#ffffff;fill-rule:evenodd;stroke:#000000;stroke-width:2.26865911;stroke-linecap:butt;stroke-linejoin:miter;stroke-miterlimit:4;stroke-dasharray:none;stroke-opacity:1"
                   d="m 416.90032,576.51577 c -10.41034,0 -18.79102,21.10461 -18.79102,47.32031 l 0,147.2207 c 0,0.75636 0.007,1.50643 0.0215,2.25391 l 19.5254,0 0,-196.74609 c -0.25133,-0.0249 -0.50203,-0.0488 -0.75586,-0.0488 z"
                   id="path4444"
                   inkscape:connector-curvature="0" />
              </g>
            </g>
          </g>
          <g
             transform="matrix(0.40385556,0,0,0.32999763,140.03301,230.08609)"
             id="g4446">
            <rect
               y="560.11548"
               x="66.302216"
               height="230.88969"
               width="337.19116"
               id="rect4448"
               style="fill:#000000;stroke-width:3;stroke-miterlimit:4;stroke-dasharray:none" />
            <g
               id="g4450"
               transform="translate(-0.32127837,0.64706946)">
              <g
                 transform="translate(-22,0)"
                 id="g4452">
                <path
                   style="fill:#ffffff;fill-rule:evenodd;stroke:#000000;stroke-width:2.26865911;stroke-linecap:butt;stroke-linejoin:miter;stroke-miterlimit:4;stroke-dasharray:none;stroke-opacity:1"
                   d="m 283.57283,576.51636 c -10.41034,0 -18.79088,21.1042 -18.79088,47.3199 l 0,147.22115 c 0,0.75636 0.008,1.50585 0.0222,2.25333 l 37.53736,0 c 0.0138,-0.74748 0.0222,-1.49697 0.0222,-2.25333 l 0,-147.22115 c 0,-26.2157 -8.38055,-47.3199 -18.79089,-47.3199 z"
                   id="path4454"
                   inkscape:connector-curvature="0" />
                <path
                   inkscape:connector-curvature="0"
                   id="path4456"
                   d="m 330.81017,576.51636 c -10.41034,0 -18.79088,21.1042 -18.79088,47.3199 l 0,147.22115 c 0,0.75636 0.008,1.50585 0.0222,2.25333 l 37.53735,0 c 0.0138,-0.74748 0.0222,-1.49697 0.0222,-2.25333 l 0,-147.22115 c 0,-26.2157 -8.38055,-47.3199 -18.79089,-47.3199 z"
                   style="fill:#ffffff;fill-rule:evenodd;stroke:#000000;stroke-width:2.26865911;stroke-linecap:butt;stroke-linejoin:miter;stroke-miterlimit:4;stroke-dasharray:none;stroke-opacity:1" />
                <path
                   style="fill:#ffffff;fill-rule:evenodd;stroke:#000000;stroke-width:1.88542378;stroke-linecap:butt;stroke-linejoin:miter;stroke-miterlimit:4;stroke-dasharray:none;stroke-opacity:1"
                   d="m 370.01836,576.32474 c -7.17629,0 -12.95335,21.1453 -12.95335,47.41205 l 0,147.50785 c 0,0.75783 0.006,1.50878 0.0153,2.25772 l 25.87606,0 c 0.01,-0.74894 0.0153,-1.49989 0.0153,-2.25772 l 0,-147.50785 c 0,-26.26675 -5.77706,-47.41205 -12.95334,-47.41205 z"
                   id="path4458"
                   inkscape:connector-curvature="0" />
                <path
                   style="fill:#ffffff;fill-rule:evenodd;stroke:#000000;stroke-width:2.26865911;stroke-linecap:butt;stroke-linejoin:miter;stroke-miterlimit:4;stroke-dasharray:none;stroke-opacity:1"
                   d="m 416.90032,576.51577 c -10.41034,0 -18.79102,21.10461 -18.79102,47.32031 l 0,147.2207 c 0,0.75636 0.007,1.50643 0.0215,2.25391 l 19.5254,0 0,-196.74609 c -0.25133,-0.0249 -0.50203,-0.0488 -0.75586,-0.0488 z"
                   id="path4460"
                   inkscape:connector-curvature="0" />
              </g>
              <g
                 transform="matrix(-1,0,0,1,492.43815,0)"
                 id="g4462">
                <path
                   inkscape:connector-curvature="0"
                   id="path4464"
                   d="m 283.57283,576.51636 c -10.41034,0 -18.79088,21.1042 -18.79088,47.3199 l 0,147.22115 c 0,0.75636 0.008,1.50585 0.0222,2.25333 l 37.53736,0 c 0.0138,-0.74748 0.0222,-1.49697 0.0222,-2.25333 l 0,-147.22115 c 0,-26.2157 -8.38055,-47.3199 -18.79089,-47.3199 z"
                   style="fill:#ffffff;fill-rule:evenodd;stroke:#000000;stroke-width:2.26865911;stroke-linecap:butt;stroke-linejoin:miter;stroke-miterlimit:4;stroke-dasharray:none;stroke-opacity:1" />
                <path
                   style="fill:#ffffff;fill-rule:evenodd;stroke:#000000;stroke-width:2.26865911;stroke-linecap:butt;stroke-linejoin:miter;stroke-miterlimit:4;stroke-dasharray:none;stroke-opacity:1"
                   d="m 330.81017,576.51636 c -10.41034,0 -18.79088,21.1042 -18.79088,47.3199 l 0,147.22115 c 0,0.75636 0.008,1.50585 0.0222,2.25333 l 37.53735,0 c 0.0138,-0.74748 0.0222,-1.49697 0.0222,-2.25333 l 0,-147.22115 c 0,-26.2157 -8.38055,-47.3199 -18.79089,-47.3199 z"
                   id="path4466"
                   inkscape:connector-curvature="0" />
                <path
                   inkscape:connector-curvature="0"
                   id="path4468"
                   d="m 370.01836,576.32474 c -7.17629,0 -12.95335,21.1453 -12.95335,47.41205 l 0,147.50785 c 0,0.75783 0.006,1.50878 0.0153,2.25772 l 25.87606,0 c 0.01,-0.74894 0.0153,-1.49989 0.0153,-2.25772 l 0,-147.50785 c 0,-26.26675 -5.77706,-47.41205 -12.95334,-47.41205 z"
                   style="fill:#ffffff;fill-rule:evenodd;stroke:#000000;stroke-width:1.88542378;stroke-linecap:butt;stroke-linejoin:miter;stroke-miterlimit:4;stroke-dasharray:none;stroke-opacity:1" />
                <path
                   inkscape:connector-curvature="0"
                   id="path4470"
                   d="m 416.90032,576.51577 c -10.41034,0 -18.79102,21.10461 -18.79102,47.32031 l 0,147.2207 c 0,0.75636 0.007,1.50643 0.0215,2.25391 l 19.5254,0 0,-196.74609 c -0.25133,-0.0249 -0.50203,-0.0488 -0.75586,-0.0488 z"
                   style="fill:#ffffff;fill-rule:evenodd;stroke:#000000;stroke-width:2.26865911;stroke-linecap:butt;stroke-linejoin:miter;stroke-miterlimit:4;stroke-dasharray:none;stroke-opacity:1" />
              </g>
            </g>
          </g>
          <g
             id="g4472"
             transform="matrix(0.40385556,0,0,0.32999763,140.03301,153.89304)">
            <rect
               style="fill:#000000;stroke-width:3;stroke-miterlimit:4;stroke-dasharray:none"
               id="rect4474"
               width="337.19116"
               height="230.88969"
               x="66.302216"
               y="560.11548" />
            <g
               transform="translate(-0.32127837,0.64706946)"
               id="g4476">
              <g
                 id="g4478"
                 transform="translate(-22,0)">
                <path
                   inkscape:connector-curvature="0"
                   id="path4480"
                   d="m 283.57283,576.51636 c -10.41034,0 -18.79088,21.1042 -18.79088,47.3199 l 0,147.22115 c 0,0.75636 0.008,1.50585 0.0222,2.25333 l 37.53736,0 c 0.0138,-0.74748 0.0222,-1.49697 0.0222,-2.25333 l 0,-147.22115 c 0,-26.2157 -8.38055,-47.3199 -18.79089,-47.3199 z"
                   style="fill:#ffffff;fill-rule:evenodd;stroke:#000000;stroke-width:2.26865911;stroke-linecap:butt;stroke-linejoin:miter;stroke-miterlimit:4;stroke-dasharray:none;stroke-opacity:1" />
                <path
                   style="fill:#ffffff;fill-rule:evenodd;stroke:#000000;stroke-width:2.26865911;stroke-linecap:butt;stroke-linejoin:miter;stroke-miterlimit:4;stroke-dasharray:none;stroke-opacity:1"
                   d="m 330.81017,576.51636 c -10.41034,0 -18.79088,21.1042 -18.79088,47.3199 l 0,147.22115 c 0,0.75636 0.008,1.50585 0.0222,2.25333 l 37.53735,0 c 0.0138,-0.74748 0.0222,-1.49697 0.0222,-2.25333 l 0,-147.22115 c 0,-26.2157 -8.38055,-47.3199 -18.79089,-47.3199 z"
                   id="path4482"
                   inkscape:connector-curvature="0" />
                <path
                   inkscape:connector-curvature="0"
                   id="path4484"
                   d="m 370.01836,576.32474 c -7.17629,0 -12.95335,21.1453 -12.95335,47.41205 l 0,147.50785 c 0,0.75783 0.006,1.50878 0.0153,2.25772 l 25.87606,0 c 0.01,-0.74894 0.0153,-1.49989 0.0153,-2.25772 l 0,-147.50785 c 0,-26.26675 -5.77706,-47.41205 -12.95334,-47.41205 z"
                   style="fill:#ffffff;fill-rule:evenodd;stroke:#000000;stroke-width:1.88542378;stroke-linecap:butt;stroke-linejoin:miter;stroke-miterlimit:4;stroke-dasharray:none;stroke-opacity:1" />
                <path
                   inkscape:connector-curvature="0"
                   id="path4486"
                   d="m 416.90032,576.51577 c -10.41034,0 -18.79102,21.10461 -18.79102,47.32031 l 0,147.2207 c 0,0.75636 0.007,1.50643 0.0215,2.25391 l 19.5254,0 0,-196.74609 c -0.25133,-0.0249 -0.50203,-0.0488 -0.75586,-0.0488 z"
                   style="fill:#ffffff;fill-rule:evenodd;stroke:#000000;stroke-width:2.26865911;stroke-linecap:butt;stroke-linejoin:miter;stroke-miterlimit:4;stroke-dasharray:none;stroke-opacity:1" />
              </g>
              <g
                 id="g4488"
                 transform="matrix(-1,0,0,1,492.43815,0)">
                <path
                   style="fill:#ffffff;fill-rule:evenodd;stroke:#000000;stroke-width:2.26865911;stroke-linecap:butt;stroke-linejoin:miter;stroke-miterlimit:4;stroke-dasharray:none;stroke-opacity:1"
                   d="m 283.57283,576.51636 c -10.41034,0 -18.79088,21.1042 -18.79088,47.3199 l 0,147.22115 c 0,0.75636 0.008,1.50585 0.0222,2.25333 l 37.53736,0 c 0.0138,-0.74748 0.0222,-1.49697 0.0222,-2.25333 l 0,-147.22115 c 0,-26.2157 -8.38055,-47.3199 -18.79089,-47.3199 z"
                   id="path4490"
                   inkscape:connector-curvature="0" />
                <path
                   inkscape:connector-curvature="0"
                   id="path4492"
                   d="m 330.81017,576.51636 c -10.41034,0 -18.79088,21.1042 -18.79088,47.3199 l 0,147.22115 c 0,0.75636 0.008,1.50585 0.0222,2.25333 l 37.53735,0 c 0.0138,-0.74748 0.0222,-1.49697 0.0222,-2.25333 l 0,-147.22115 c 0,-26.2157 -8.38055,-47.3199 -18.79089,-47.3199 z"
                   style="fill:#ffffff;fill-rule:evenodd;stroke:#000000;stroke-width:2.26865911;stroke-linecap:butt;stroke-linejoin:miter;stroke-miterlimit:4;stroke-dasharray:none;stroke-opacity:1" />
                <path
                   style="fill:#ffffff;fill-rule:evenodd;stroke:#000000;stroke-width:1.88542378;stroke-linecap:butt;stroke-linejoin:miter;stroke-miterlimit:4;stroke-dasharray:none;stroke-opacity:1"
                   d="m 370.01836,576.32474 c -7.17629,0 -12.95335,21.1453 -12.95335,47.41205 l 0,147.50785 c 0,0.75783 0.006,1.50878 0.0153,2.25772 l 25.87606,0 c 0.01,-0.74894 0.0153,-1.49989 0.0153,-2.25772 l 0,-147.50785 c 0,-26.26675 -5.77706,-47.41205 -12.95334,-47.41205 z"
                   id="path4494"
                   inkscape:connector-curvature="0" />
                <path
                   style="fill:#ffffff;fill-rule:evenodd;stroke:#000000;stroke-width:2.26865911;stroke-linecap:butt;stroke-linejoin:miter;stroke-miterlimit:4;stroke-dasharray:none;stroke-opacity:1"
                   d="m 416.90032,576.51577 c -10.41034,0 -18.79102,21.10461 -18.79102,47.32031 l 0,147.2207 c 0,0.75636 0.007,1.50643 0.0215,2.25391 l 19.5254,0 0,-196.74609 c -0.25133,-0.0249 -0.50203,-0.0488 -0.75586,-0.0488 z"
                   id="path4496"
                   inkscape:connector-curvature="0" />
              </g>
            </g>
          </g>
        </g>
        <g
           id="g4602"
           transform="matrix(0.85603846,0,0,0.43845428,-215.4546,-30.649178)">
          <rect
             style="fill:#000000;stroke-width:3;stroke-miterlimit:4;stroke-dasharray:none"
             id="rect4580"
             width="118.45549"
             height="121.47211"
             x="468.67221"
             y="721.9859" />
          <path
             style="fill:#ffffff;fill-rule:evenodd;stroke:#000000;stroke-width:1.44144952;stroke-linecap:butt;stroke-linejoin:miter;stroke-miterlimit:4;stroke-dasharray:none;stroke-opacity:1"
             d="m 492.85893,730.43867 c -8.01806,0 -14.47276,11.06178 -14.47276,24.80275 l 0,77.16607 c 0,0.39645 0.006,0.7893 0.0171,1.18109 l 28.91132,0 c 0.0106,-0.39179 0.0171,-0.78464 0.0171,-1.18109 l 0,-77.16607 c 0,-13.74097 -6.45471,-24.80275 -14.47277,-24.80275 z"
             id="path4584"
             inkscape:connector-curvature="0" />
          <path
             inkscape:connector-curvature="0"
             id="path4586"
             d="m 527.70078,730.43867 c -8.01805,0 -14.47276,11.06178 -14.47276,24.80275 l 0,77.16607 c 0,0.39645 0.006,0.7893 0.0171,1.18109 l 28.91131,0 c 0.0106,-0.39179 0.0171,-0.78464 0.0171,-1.18109 l 0,-77.16607 c 0,-13.74097 -6.4547,-24.80275 -14.47276,-24.80275 z"
             style="fill:#ffffff;fill-rule:evenodd;stroke:#000000;stroke-width:1.44144952;stroke-linecap:butt;stroke-linejoin:miter;stroke-miterlimit:4;stroke-dasharray:none;stroke-opacity:1" />
          <path
             style="fill:#ffffff;fill-rule:evenodd;stroke:#000000;stroke-width:1.44144952;stroke-linecap:butt;stroke-linejoin:miter;stroke-miterlimit:4;stroke-dasharray:none;stroke-opacity:1"
             d="m 562.54264,730.43867 c -8.01806,0 -14.47276,11.06178 -14.47276,24.80275 l 0,77.16607 c 0,0.39645 0.006,0.7893 0.0171,1.18109 l 28.91132,0 c 0.0106,-0.39179 0.0171,-0.78464 0.0171,-1.18109 l 0,-77.16607 c 0,-13.74097 -6.45471,-24.80275 -14.47277,-24.80275 z"
             id="path4588"
             inkscape:connector-curvature="0" />
        </g>
        <g
           transform="matrix(0.80521441,0,0,0.10530211,47.304986,190.9216)"
           id="g4608">
          <rect
             style="fill:#000000;stroke-width:3;stroke-miterlimit:4;stroke-dasharray:none"
             id="rect4610"
             width="143.2599"
             height="93.246086"
             x="163.26784"
             y="791.78455" />
          <g
             id="g4612"
             style="fill:#ffffff;stroke-width:2.87765908;stroke-miterlimit:4;stroke-dasharray:none"
             transform="matrix(0.40379098,0,0,0.43899475,118.35862,527.23024)">
            <path
               inkscape:connector-curvature="0"
               id="path4614"
               d="m 166.3457,617.41727 c -18.27487,0 -32.98652,19.34282 -32.98652,43.37052 l 0,134.9339 c 0,0.69323 0.0147,1.38017 0.039,2.06526 l 65.89508,0 c 0.0242,-0.68509 0.039,-1.37203 0.039,-2.06526 l 0,-134.9339 c 0,-24.0277 -14.71166,-43.37052 -32.98653,-43.37052 z"
               style="fill:#ffffff;fill-rule:evenodd;stroke:#000000;stroke-width:2.87765908;stroke-linecap:butt;stroke-linejoin:miter;stroke-miterlimit:4;stroke-dasharray:none;stroke-opacity:1" />
            <path
               style="fill:#ffffff;fill-rule:evenodd;stroke:#000000;stroke-width:2.87765908;stroke-linecap:butt;stroke-linejoin:miter;stroke-miterlimit:4;stroke-dasharray:none;stroke-opacity:1"
               d="m 245.75775,617.41727 c -18.27487,0 -32.98652,19.34282 -32.98652,43.37052 l 0,134.9339 c 0,0.69323 0.0147,1.38017 0.039,2.06526 l 65.89508,0 c 0.0242,-0.68509 0.039,-1.37203 0.039,-2.06526 l 0,-134.9339 c 0,-24.0277 -14.71166,-43.37052 -32.98653,-43.37052 z"
               id="path4616"
               inkscape:connector-curvature="0" />
            <path
               inkscape:connector-curvature="0"
               id="path4618"
               d="m 325.1698,617.41727 c -18.27487,0 -32.98652,19.34282 -32.98652,43.37052 l 0,134.9339 c 0,0.69323 0.0147,1.38017 0.039,2.06526 l 65.89508,0 c 0.0242,-0.68509 0.039,-1.37203 0.039,-2.06526 l 0,-134.9339 c 0,-24.0277 -14.71166,-43.37052 -32.98653,-43.37052 z"
               style="fill:#ffffff;fill-rule:evenodd;stroke:#000000;stroke-width:2.87765908;stroke-linecap:butt;stroke-linejoin:miter;stroke-miterlimit:4;stroke-dasharray:none;stroke-opacity:1" />
            <path
               style="fill:#ffffff;fill-rule:evenodd;stroke:#000000;stroke-width:2.87765908;stroke-linecap:butt;stroke-linejoin:miter;stroke-miterlimit:4;stroke-dasharray:none;stroke-opacity:1"
               d="m 404.58185,617.41727 c -18.27487,0 -32.98652,19.34282 -32.98652,43.37052 l 0,134.9339 c 0,0.69323 0.0147,1.38017 0.039,2.06526 l 65.89508,0 c 0.0242,-0.68509 0.039,-1.37203 0.039,-2.06526 l 0,-134.9339 c 0,-24.0277 -14.71166,-43.37052 -32.98653,-43.37052 z"
               id="path4620"
               inkscape:connector-curvature="0" />
          </g>
        </g>
      </g>
      <g
         transform="translate(-280.59995,37.206623)"
         id="g5122">
        <rect
           style="fill:#ffffff;stroke:none;stroke-width:3;stroke-miterlimit:4;stroke-dasharray:none"
           id="rect5118"
           width="260.44635"
           height="60.460762"
           x="455.78113"
           y="925.23956" />
        <rect
           y="925.23956"
           x="455.78113"
           height="9.3016558"
           width="260.44635"
           id="rect5120"
           style="fill:#000000;stroke:none;stroke-width:3;stroke-miterlimit:4;stroke-dasharray:none" />
      </g>
    </g>
  </g>
</svg>
